<svg width="703" height="328" viewBox="0 0 703 328" fill="none" xmlns="http://www.w3.org/2000/svg">
<path d="M407 118C407 94.2594 426.259 75 450 75C473.741 75 493 94.2594 493 118C493 141.741 473.741 161 450 161C426.355 161 407 141.741 407 118Z" fill="black"/>
<path d="M183.2 13.2029H150.6C147 13.2029 144 10.2029 144 6.60293C144 3.00293 147 0.00292969 150.6 0.00292969H183.2C186.8 0.00292969 189.8 3.00293 189.8 6.60293C189.8 10.2029 186.8 13.2029 183.2 13.2029Z" fill="#FF0000"/>
<path d="M176.9 64.503H134.6C131 64.503 128 61.503 128 57.903C128 54.303 131 51.303 134.6 51.303H176.9C180.5 51.303 183.5 54.303 183.5 57.903C183.5 61.603 180.6 64.503 176.9 64.503Z" fill="#FF0000"/>
<path d="M206.5 96.2H155.6C152 96.2 149 93.2 149 89.6C149 86 152 83 155.6 83H206.4C210 83 213 86 213 89.6C213.1 93.3 210.1 96.2 206.5 96.2Z" fill="#FF0000"/>
<path d="M183 128.2H150.6C147 128.2 144 125.2 144 121.6C144 118 147 115 150.6 115H183C186.6 115 189.6 118 189.6 121.6C189.6 125.3 186.6 128.2 183 128.2Z" fill="#FF0000"/>
<path d="M575.5 99.203C575.5 99.203 575.6 98.003 575.4 96.803C574.9 93.003 570.5 90.103 563.2 85.803C563.1 85.803 556.1 81.603 554.8 80.903C549.9 78.103 544.9 75.403 542.7 74.303C524 64.503 502.3 58.103 502.1 58.103C501.8 58.003 471.6 49.203 446.1 49.203C446.1 49.203 446.1 49.203 446 49.203C438.7 49.203 424.7 48.603 422.7 48.003C411.5 40.803 382.3 27.003 381 26.403C360.5 18.003 344.4 11.403 320.5 5.50301C307.3 2.30301 296.7 -0.0969863 292 0.00301374H291.9H202.8C199.2 0.00301374 196.2 3.00301 196.2 6.60301C196.2 10.203 199.2 13.203 202.8 13.203H276H279.2C282.6 13.203 285.3 15.903 285.3 19.303C285.3 22.703 282.6 25.403 279.2 25.403H270.1H169.3C165.6 25.403 162.6 28.403 162.6 32.103C162.6 35.803 165.6 38.803 169.3 38.803H287C290.4 38.803 293.1 41.603 293.1 44.903C293.1 48.303 290.4 51.003 287 51.003H263.9H208C204.4 51.003 201.4 54.003 201.4 57.603V58.003C201.4 61.603 204.4 64.603 208 64.603H262.6H268.9C272.3 64.603 275 67.303 275 70.703V70.803C275 74.203 272.3 76.903 268.9 76.903H262.3H239.2C235.6 76.903 232.6 79.903 232.6 83.503V83.703C232.6 87.303 235.6 90.303 239.2 90.303H263H294.3C297.7 90.303 300.4 93.003 300.4 96.403C300.4 99.803 297.7 102.503 294.3 102.503H264.8H222.1C218.5 102.503 215.5 105.503 215.5 109.103V109.303C215.5 112.903 218.5 115.903 222.1 115.903H268.2H278.5C281.9 115.903 284.6 118.603 284.6 122.003C284.6 125.403 281.9 128.103 278.5 128.103H272.8H203.8C200.2 128.103 197.2 131.103 197.2 134.703V134.903C197.2 138.503 200.2 141.503 203.8 141.503H287H339.2H384.8C396.1 141.503 396.7 124.503 396.7 118.303C396.7 88.703 420.8 64.603 450.4 64.603C480 64.603 504.1 88.703 504.1 118.303C503.9 129.803 502.3 137.103 501.8 139.203C501.8 139.203 501.3 141.703 502.1 142.503C502.5 142.803 502.9 142.903 503.5 142.903C503.8 142.903 544.6 142.003 546.7 141.703C548.7 141.403 549.8 140.603 550.6 140.103C551.8 139.403 553.3 137.503 554 137.103C554.7 136.603 555.1 136.603 555.9 136.603C556.6 136.503 557.7 136.503 559.4 136.103C561.9 135.603 564.4 135.003 566.1 133.203C568.3 131.103 575.4 100.903 575.5 99.203Z" fill="black"/>
<path d="M55.5953 313H70.6953L44.1953 244H27.8953L1.29531 313H16.1953L21.0953 299.6H50.6953L55.5953 313ZM25.6953 286.9L35.8953 259.2L45.9953 286.9H25.6953ZM90.5773 300V244H76.7773V313H113.677V300H90.5773ZM134.866 300V244H121.066V313H157.966V300H134.866ZM490.699 314.2C508.499 314.2 522.599 302.7 526.199 286.6H511.499C508.399 295.1 500.399 300.9 490.699 300.9C477.999 300.9 468.399 291.3 468.399 278.5C468.399 265.7 477.999 256.1 490.699 256.1C500.399 256.1 508.399 261.9 511.499 270.4H526.199C522.599 254.3 508.499 242.8 490.699 242.8C469.899 242.8 454.299 258.2 454.299 278.5C454.299 298.8 469.899 314.2 490.699 314.2ZM578.318 313H593.418L566.918 244H550.618L524.018 313H538.918L543.818 299.6H573.418L578.318 313ZM548.418 286.9L558.618 259.2L568.718 286.9H548.418ZM632.1 313H648.7L633.5 286.6C641.6 283.3 647 275.8 647 266.6C647 253.7 636.9 244 623.6 244H599.5V313H613.3V288.4H618.9L632.1 313ZM613.3 257H623.3C628.7 257 632.8 261.2 632.8 266.7C632.8 272.2 628.7 276.4 623.3 276.4H613.3V257ZM675.613 314.2C689.113 314.2 699.413 305.2 699.413 293.3C699.413 280.1 689.713 274.8 678.913 272C671.613 270.1 666.913 267.3 666.913 262.3C666.913 258.2 670.613 255.1 675.413 255.1C680.413 255.1 684.213 258.7 684.213 263.5H698.413C698.413 251.7 688.513 242.8 675.413 242.8C662.513 242.8 652.713 251.5 652.713 262.9C652.713 275.5 661.913 281.5 672.213 284.2C679.513 286 685.213 288.9 685.213 294.1C685.213 298.5 681.113 301.9 675.813 301.9C670.213 301.9 665.913 297.8 665.913 292.6H651.713C651.713 304.9 662.013 314.2 675.613 314.2Z" fill="black"/>
<path d="M185.655 314.2C199.155 314.2 209.455 305.2 209.455 293.3C209.455 280.1 199.755 274.8 188.955 272C181.655 270.1 176.955 267.3 176.955 262.3C176.955 258.2 180.655 255.1 185.455 255.1C190.455 255.1 194.255 258.7 194.255 263.5H208.455C208.455 251.7 198.555 242.8 185.455 242.8C172.555 242.8 162.755 251.5 162.755 262.9C162.755 275.5 171.955 281.5 182.255 284.2C189.555 286 195.255 288.9 195.255 294.1C195.255 298.5 191.155 301.9 185.855 301.9C180.255 301.9 175.955 297.8 175.955 292.6H161.755C161.755 304.9 172.055 314.2 185.655 314.2ZM242.648 244H217.848V313H231.648V290H242.648C256.048 290 266.348 280.1 266.348 267C266.348 253.9 256.048 244 242.648 244ZM242.348 277H231.648V257H242.348C247.948 257 252.148 261.3 252.148 267C252.148 272.7 247.948 277 242.348 277ZM306.074 314.2C326.774 314.2 342.474 298.8 342.474 278.5C342.474 258.2 326.774 242.8 306.074 242.8C285.274 242.8 269.674 258.2 269.674 278.5C269.674 298.8 285.274 314.2 306.074 314.2ZM306.074 300.9C293.374 300.9 283.774 291.3 283.774 278.5C283.774 265.7 293.374 256.1 306.074 256.1C318.674 256.1 328.274 265.7 328.274 278.5C328.274 291.3 318.674 300.9 306.074 300.9ZM383.557 313H400.157L384.957 286.6C393.057 283.3 398.457 275.8 398.457 266.6C398.457 253.7 388.357 244 375.057 244H350.957V313H364.757V288.4H370.357L383.557 313ZM364.757 257H374.757C380.157 257 384.257 261.2 384.257 266.7C384.257 272.2 380.157 276.4 374.757 276.4H364.757V257ZM450.109 244H400.709V257H418.509V313H432.309V257H450.109V244Z" fill="#FF0000"/>
</svg>
